<svg xmlns="http://www.w3.org/2000/svg" xmlns:xlink="http://www.w3.org/1999/xlink" width="500" zoomAndPan="magnify" viewBox="0 0 375 374.999991" height="500" preserveAspectRatio="xMidYMid meet" version="1.0"><defs><clipPath id="id1"><path d="M 36.035156 36.035156 L 338.964844 36.035156 L 338.964844 338.964844 L 36.035156 338.964844 Z M 36.035156 36.035156 " clip-rule="nonzero"/></clipPath><clipPath id="id2"><path d="M 145.566406 79 L 160.105469 79 L 160.105469 296 L 145.566406 296 Z M 145.566406 79 " clip-rule="nonzero"/></clipPath><clipPath id="id3"><path d="M 212.984375 79 L 227.527344 79 L 227.527344 296 L 212.984375 296 Z M 212.984375 79 " clip-rule="nonzero"/></clipPath><clipPath id="id4"><path d="M 79 151.457031 L 296 151.457031 L 296 166 L 79 166 Z M 79 151.457031 " clip-rule="nonzero"/></clipPath><clipPath id="id5"><path d="M 79 216.699219 L 296 216.699219 L 296 231.238281 L 79 231.238281 Z M 79 216.699219 " clip-rule="nonzero"/></clipPath><clipPath id="id6"><path d="M 92 96 L 283 96 L 283 287 L 92 287 Z M 92 96 " clip-rule="nonzero"/></clipPath><clipPath id="id7"><path d="M 87.175781 279.476562 L 275.675781 90.976562 L 288.097656 103.402344 L 99.597656 291.902344 Z M 87.175781 279.476562 " clip-rule="nonzero"/></clipPath><clipPath id="id8"><path d="M 87.175781 279.476562 L 275.675781 90.976562 L 288.097656 103.402344 L 99.597656 291.902344 Z M 87.175781 279.476562 " clip-rule="nonzero"/></clipPath></defs><g clip-path="url(#id1)"><path fill="#1c1b1f" d="M 338.964844 187.5 C 338.964844 189.980469 338.90625 192.457031 338.785156 194.933594 C 338.660156 197.40625 338.480469 199.878906 338.238281 202.347656 C 337.992188 204.8125 337.691406 207.273438 337.328125 209.726562 C 336.960938 212.175781 336.539062 214.617188 336.054688 217.050781 C 335.570312 219.480469 335.027344 221.898438 334.425781 224.304688 C 333.824219 226.707031 333.164062 229.097656 332.445312 231.46875 C 331.722656 233.839844 330.945312 236.191406 330.113281 238.527344 C 329.277344 240.859375 328.382812 243.171875 327.4375 245.464844 C 326.488281 247.753906 325.484375 250.019531 324.421875 252.261719 C 323.363281 254.5 322.25 256.714844 321.082031 258.902344 C 319.914062 261.085938 318.691406 263.242188 317.417969 265.367188 C 316.140625 267.496094 314.816406 269.589844 313.4375 271.648438 C 312.0625 273.710938 310.636719 275.738281 309.160156 277.726562 C 307.683594 279.71875 306.15625 281.671875 304.585938 283.589844 C 303.011719 285.503906 301.394531 287.382812 299.730469 289.21875 C 298.0625 291.054688 296.355469 292.851562 294.601562 294.601562 C 292.851562 296.355469 291.054688 298.0625 289.21875 299.730469 C 287.382812 301.394531 285.503906 303.011719 283.589844 304.585938 C 281.671875 306.15625 279.71875 307.683594 277.726562 309.160156 C 275.738281 310.636719 273.710938 312.0625 271.648438 313.4375 C 269.589844 314.816406 267.496094 316.140625 265.367188 317.417969 C 263.242188 318.691406 261.085938 319.914062 258.902344 321.082031 C 256.714844 322.25 254.5 323.363281 252.261719 324.421875 C 250.019531 325.484375 247.753906 326.488281 245.464844 327.4375 C 243.171875 328.382812 240.859375 329.277344 238.527344 330.113281 C 236.191406 330.945312 233.839844 331.722656 231.46875 332.445312 C 229.097656 333.164062 226.707031 333.824219 224.304688 334.425781 C 221.898438 335.027344 219.480469 335.570312 217.050781 336.054688 C 214.617188 336.539062 212.175781 336.960938 209.726562 337.328125 C 207.273438 337.691406 204.8125 337.992188 202.347656 338.238281 C 199.878906 338.480469 197.40625 338.660156 194.933594 338.785156 C 192.457031 338.90625 189.980469 338.964844 187.5 338.964844 C 185.019531 338.964844 182.542969 338.90625 180.066406 338.785156 C 177.59375 338.660156 175.121094 338.480469 172.652344 338.238281 C 170.1875 337.992188 167.726562 337.691406 165.273438 337.328125 C 162.824219 336.960938 160.382812 336.539062 157.949219 336.054688 C 155.519531 335.570312 153.101562 335.027344 150.695312 334.425781 C 148.292969 333.824219 145.902344 333.164062 143.53125 332.445312 C 141.160156 331.722656 138.804688 330.945312 136.472656 330.113281 C 134.140625 329.277344 131.828125 328.382812 129.535156 327.4375 C 127.246094 326.488281 124.980469 325.484375 122.738281 324.421875 C 120.5 323.363281 118.285156 322.25 116.097656 321.082031 C 113.914062 319.914062 111.757812 318.691406 109.632812 317.417969 C 107.503906 316.140625 105.410156 314.816406 103.351562 313.4375 C 101.289062 312.0625 99.261719 310.636719 97.273438 309.160156 C 95.28125 307.683594 93.328125 306.15625 91.410156 304.585938 C 89.496094 303.011719 87.617188 301.394531 85.78125 299.730469 C 83.945312 298.0625 82.148438 296.355469 80.398438 294.601562 C 78.644531 292.851562 76.9375 291.054688 75.269531 289.21875 C 73.605469 287.382812 71.988281 285.503906 70.414062 283.589844 C 68.84375 281.671875 67.316406 279.71875 65.839844 277.726562 C 64.363281 275.738281 62.9375 273.710938 61.5625 271.648438 C 60.183594 269.589844 58.859375 267.496094 57.582031 265.367188 C 56.308594 263.242188 55.085938 261.085938 53.917969 258.902344 C 52.75 256.714844 51.636719 254.5 50.578125 252.261719 C 49.515625 250.019531 48.511719 247.753906 47.5625 245.464844 C 46.613281 243.171875 45.722656 240.859375 44.886719 238.527344 C 44.054688 236.191406 43.277344 233.839844 42.554688 231.46875 C 41.835938 229.097656 41.175781 226.707031 40.574219 224.304688 C 39.972656 221.898438 39.429688 219.480469 38.945312 217.050781 C 38.460938 214.617188 38.039062 212.175781 37.671875 209.726562 C 37.308594 207.273438 37.007812 204.8125 36.761719 202.347656 C 36.519531 199.878906 36.339844 197.40625 36.214844 194.933594 C 36.09375 192.457031 36.035156 189.980469 36.035156 187.5 C 36.035156 185.019531 36.09375 182.542969 36.214844 180.066406 C 36.339844 177.59375 36.519531 175.121094 36.761719 172.652344 C 37.007812 170.1875 37.308594 167.726562 37.671875 165.273438 C 38.039062 162.824219 38.460938 160.382812 38.945312 157.949219 C 39.429688 155.519531 39.972656 153.101562 40.574219 150.695312 C 41.175781 148.292969 41.835938 145.902344 42.554688 143.53125 C 43.277344 141.160156 44.054688 138.808594 44.886719 136.472656 C 45.722656 134.140625 46.613281 131.828125 47.5625 129.535156 C 48.511719 127.246094 49.515625 124.980469 50.578125 122.738281 C 51.636719 120.5 52.75 118.285156 53.917969 116.097656 C 55.085938 113.914062 56.308594 111.757812 57.582031 109.632812 C 58.859375 107.503906 60.183594 105.410156 61.5625 103.351562 C 62.9375 101.289062 64.363281 99.261719 65.839844 97.273438 C 67.316406 95.28125 68.84375 93.328125 70.414062 91.410156 C 71.988281 89.496094 73.605469 87.617188 75.269531 85.78125 C 76.9375 83.945312 78.644531 82.148438 80.398438 80.398438 C 82.148438 78.644531 83.945312 76.9375 85.78125 75.269531 C 87.617188 73.605469 89.496094 71.988281 91.410156 70.414062 C 93.328125 68.84375 95.28125 67.316406 97.273438 65.839844 C 99.261719 64.363281 101.289062 62.9375 103.351562 61.5625 C 105.410156 60.183594 107.503906 58.859375 109.632812 57.582031 C 111.757812 56.308594 113.914062 55.085938 116.097656 53.917969 C 118.285156 52.75 120.5 51.636719 122.738281 50.578125 C 124.980469 49.515625 127.246094 48.511719 129.535156 47.5625 C 131.828125 46.613281 134.140625 45.722656 136.472656 44.886719 C 138.804688 44.054688 141.160156 43.277344 143.53125 42.554688 C 145.902344 41.835938 148.292969 41.175781 150.695312 40.574219 C 153.101562 39.972656 155.519531 39.429688 157.949219 38.945312 C 160.382812 38.460938 162.824219 38.039062 165.273438 37.671875 C 167.726562 37.308594 170.1875 37.007812 172.652344 36.761719 C 175.121094 36.519531 177.59375 36.339844 180.066406 36.214844 C 182.542969 36.09375 185.019531 36.035156 187.5 36.035156 C 189.980469 36.035156 192.457031 36.09375 194.933594 36.214844 C 197.40625 36.339844 199.878906 36.519531 202.347656 36.761719 C 204.8125 37.007812 207.273438 37.308594 209.726562 37.671875 C 212.175781 38.039062 214.617188 38.460938 217.050781 38.945312 C 219.480469 39.429688 221.898438 39.972656 224.304688 40.574219 C 226.707031 41.175781 229.097656 41.835938 231.46875 42.554688 C 233.839844 43.277344 236.191406 44.054688 238.527344 44.886719 C 240.859375 45.722656 243.171875 46.613281 245.464844 47.5625 C 247.753906 48.511719 250.019531 49.515625 252.261719 50.578125 C 254.5 51.636719 256.714844 52.75 258.902344 53.917969 C 261.085938 55.085938 263.242188 56.308594 265.367188 57.582031 C 267.496094 58.859375 269.589844 60.183594 271.648438 61.5625 C 273.710938 62.9375 275.738281 64.363281 277.726562 65.839844 C 279.71875 67.316406 281.671875 68.84375 283.589844 70.414062 C 285.503906 71.988281 287.382812 73.605469 289.21875 75.269531 C 291.054688 76.9375 292.851562 78.644531 294.601562 80.398438 C 296.355469 82.148438 298.0625 83.945312 299.730469 85.78125 C 301.394531 87.617188 303.011719 89.496094 304.585938 91.410156 C 306.15625 93.328125 307.683594 95.28125 309.160156 97.273438 C 310.636719 99.261719 312.0625 101.289062 313.4375 103.351562 C 314.816406 105.410156 316.140625 107.503906 317.417969 109.632812 C 318.691406 111.757812 319.914062 113.914062 321.082031 116.097656 C 322.25 118.285156 323.363281 120.5 324.421875 122.738281 C 325.484375 124.980469 326.488281 127.246094 327.4375 129.535156 C 328.382812 131.828125 329.277344 134.140625 330.113281 136.472656 C 330.945312 138.804688 331.722656 141.160156 332.445312 143.53125 C 333.164062 145.902344 333.824219 148.292969 334.425781 150.695312 C 335.027344 153.101562 335.570312 155.519531 336.054688 157.949219 C 336.539062 160.382812 336.960938 162.824219 337.328125 165.273438 C 337.691406 167.726562 337.992188 170.1875 338.238281 172.652344 C 338.480469 175.121094 338.660156 177.59375 338.785156 180.066406 C 338.90625 182.542969 338.964844 185.019531 338.964844 187.5 Z M 338.964844 187.5 " fill-opacity="1" fill-rule="nonzero"/></g><g clip-path="url(#id2)"><path fill="#f9d862" d="M 160.105469 288.289062 L 160.105469 86.777344 C 160.105469 82.800781 156.851562 79.582031 152.835938 79.582031 C 148.820312 79.582031 145.566406 82.800781 145.566406 86.777344 L 145.566406 288.289062 C 145.566406 292.261719 148.820312 295.484375 152.835938 295.484375 C 156.851562 295.484375 160.105469 292.261719 160.105469 288.289062 Z M 160.105469 288.289062 " fill-opacity="1" fill-rule="nonzero"/></g><g clip-path="url(#id3)"><path fill="#f9d862" d="M 227.527344 288.289062 L 227.527344 86.777344 C 227.527344 82.800781 224.269531 79.582031 220.253906 79.582031 C 216.238281 79.582031 212.984375 82.800781 212.984375 86.777344 L 212.984375 288.289062 C 212.984375 292.261719 216.238281 295.484375 220.253906 295.484375 C 224.269531 295.484375 227.527344 292.261719 227.527344 288.289062 Z M 227.527344 288.289062 " fill-opacity="1" fill-rule="nonzero"/></g><g clip-path="url(#id4)"><path fill="#f9d862" d="M 86.707031 166 L 288.21875 166 C 292.191406 166 295.414062 162.742188 295.414062 158.730469 C 295.414062 154.714844 292.191406 151.457031 288.21875 151.457031 L 86.707031 151.457031 C 82.734375 151.457031 79.511719 154.714844 79.511719 158.730469 C 79.511719 162.742188 82.734375 166 86.707031 166 Z M 86.707031 166 " fill-opacity="1" fill-rule="nonzero"/></g><g clip-path="url(#id5)"><path fill="#f9d862" d="M 86.707031 231.238281 L 288.21875 231.238281 C 292.191406 231.238281 295.414062 227.984375 295.414062 223.96875 C 295.414062 219.953125 292.191406 216.699219 288.21875 216.699219 L 86.707031 216.699219 C 82.734375 216.699219 79.511719 219.953125 79.511719 223.96875 C 79.511719 227.984375 82.734375 231.238281 86.707031 231.238281 Z M 86.707031 231.238281 " fill-opacity="1" fill-rule="nonzero"/></g><g clip-path="url(#id6)"><g clip-path="url(#id7)"><g clip-path="url(#id8)"><path fill="#e6e6e6" d="M 267.769531 98.882812 L 95.082031 271.570312 C 91.675781 274.976562 91.695312 280.519531 95.125 283.949219 C 98.554688 287.382812 104.097656 287.402344 107.503906 283.996094 L 280.191406 111.308594 C 283.597656 107.902344 283.578125 102.359375 280.148438 98.925781 C 276.71875 95.496094 271.175781 95.476562 267.769531 98.882812 Z M 267.769531 98.882812 " fill-opacity="1" fill-rule="nonzero"/></g></g></g></svg>